<svg xmlns="http://www.w3.org/2000/svg" enable-background="new 0 0 48 48" viewBox="0 0 48 48" id="click">
  <path d="M39.897,39.45c-0.134-0.443-0.438-1.106-0.872-1.873c-2.217-3.879-4.241-7.832-6.595-11.708
	c0.743-0.749,6.395-6.449,6.395-6.449c0.488-0.464,0.222-1.357-0.446-1.474c-5.977-1.168-11.95-2.468-17.933-3.62
	c0.365-2.662-1.146-5.413-3.6-6.564c-5.722-2.821-11.987,3.396-9.099,9.121c1.18,2.502,4.062,3.92,6.723,3.576
	c1.212,5.9,2.434,11.799,3.688,17.691c0.121,0.668,1.021,0.937,1.488,0.438l6.28-6.33l11.845,6.84
	C38.625,39.655,41.04,40.676,39.897,39.45z M13.212,14.337c0.347,1.7,0.699,3.398,1.048,5.098C5.959,18.751,8.205,6.773,16.11,9.386
	c1.843,0.727,3.202,2.639,3.308,4.747c-1.806-0.342-3.613-0.676-5.422-0.981C13.452,13.264,13.102,13.794,13.212,14.337z
	 M26.203,30.624c-0.291-0.183-0.679-0.153-0.938,0.096c-0.01,0.01-3.723,3.578-5.68,5.46c-1.346-6.934-2.725-13.861-4.121-20.785
	c6.979,1.352,13.961,2.688,20.95,3.989c-1.542,1.631-5.499,5.817-5.499,5.817c-0.253,0.255-0.303,0.662-0.097,0.975
	c2.56,3.883,4.878,8.061,7.433,12.042L26.203,30.624z"></path>
</svg>
